<svg width="40" height="40" viewBox="0 0 40 40" fill="none" xmlns="http://www.w3.org/2000/svg">
<path d="M6.66659 33.3334C5.74992 33.3334 4.96492 33.0068 4.31159 32.3534C3.65825 31.7001 3.33214 30.9156 3.33325 30.0001V10.0001C3.33325 9.08342 3.65992 8.29842 4.31325 7.64508C4.96659 6.99175 5.75103 6.66564 6.66659 6.66675H33.3333C34.2499 6.66675 35.0349 6.99342 35.6883 7.64675C36.3416 8.30008 36.6677 9.08453 36.6666 10.0001V30.0001C36.6666 30.9168 36.3399 31.7018 35.6866 32.3551C35.0333 33.0084 34.2488 33.3345 33.3333 33.3334H6.66659ZM19.9999 21.6668L6.66659 13.3334V30.0001H33.3333V13.3334L19.9999 21.6668ZM19.9999 18.3334L33.3333 10.0001H6.66659L19.9999 18.3334ZM6.66659 13.3334V10.0001V30.0001V13.3334Z" fill="black"/>
</svg>
