<svg width="100" height="100" viewBox="0 0 100 100" fill="none" xmlns="http://www.w3.org/2000/svg">
<path d="M82.6795 60.5559C84.3815 56.3563 85.3055 51.8603 85.3055 46.9197C85.3055 43.3624 84.7706 39.9534 83.8466 36.7913C80.6856 37.5324 77.3788 37.9277 73.926 37.9277C66.8551 37.9354 59.8859 36.2159 53.6061 32.914C47.3262 29.6122 41.9198 24.8249 37.8425 18.9556C33.4808 29.6777 25.2527 38.3022 14.8404 43.066C14.6459 44.3011 14.6459 45.6351 14.6459 46.9197C14.6459 51.6366 15.5604 56.3073 17.3371 60.6651C19.1138 65.023 21.7179 68.9826 25.0009 72.3179C31.6311 79.054 40.6235 82.8382 50 82.8382C55.1062 82.8382 60.0178 81.7019 64.4432 79.6762C67.2151 85.0615 68.4795 87.7295 68.3822 87.7295C60.4069 90.4469 54.2308 91.7808 50 91.7808C38.2315 91.7808 26.998 87.0872 18.7308 78.6387C13.7025 73.5458 9.96462 67.29 7.83768 60.4077H1.36987V37.9277H6.67056C8.27653 29.9857 11.9688 22.6334 17.3555 16.6512C22.7423 10.669 29.6226 6.27987 37.2663 3.94961C44.9101 1.61936 53.0323 1.43489 60.7709 3.41577C68.5096 5.39665 75.5761 9.46899 81.2206 15.2007C87.349 21.4025 91.5292 29.3117 93.2322 37.9277H98.6301V60.4077H98.3384L81.026 76.5636L55.2521 73.5992V65.3483H78.7404L82.6795 60.5559ZM36.724 45.7833C38.1829 45.7833 39.5932 46.3762 40.6144 47.4632C41.6407 48.5144 42.2166 49.935 42.2166 51.4157C42.2166 52.8963 41.6407 54.317 40.6144 55.3682C39.5932 56.4057 38.1829 56.9986 36.724 56.9986C33.6603 56.9986 31.1801 54.5283 31.1801 51.4157C31.1801 48.3031 33.6603 45.7833 36.724 45.7833ZM63.2274 45.7833C66.2911 45.7833 68.7226 48.3031 68.7226 51.4157C68.7226 54.5283 66.2911 56.9986 63.2274 56.9986C60.1637 56.9986 57.6836 54.5283 57.6836 51.4157C57.6836 49.9219 58.2677 48.4893 59.3073 47.433C60.347 46.3767 61.7571 45.7833 63.2274 45.7833Z" fill="url(#paint0_linear_122_268)"/>
<defs>
<linearGradient id="paint0_linear_122_268" x1="50" y1="2.05479" x2="50" y2="91.7808" gradientUnits="userSpaceOnUse">
<stop stop-color="#FFCB67"/>
<stop offset="1" stop-color="#FFCB67" stop-opacity="0.5"/>
</linearGradient>
</defs>
</svg>
