<svg width="40" height="40" viewBox="0 0 40 40" fill="none" xmlns="http://www.w3.org/2000/svg">
<path d="M18.3333 3.33325V14.0233C16.0254 13.5949 13.6417 13.8883 11.5067 14.8635C9.3716 15.8387 7.58902 17.4483 6.40167 19.4731C5.21433 21.4979 4.67993 23.8394 4.87125 26.1788C5.06257 28.5182 5.97031 30.7418 7.47086 32.5467C8.97141 34.3517 10.9918 35.6502 13.2569 36.2656C15.5221 36.8809 17.9218 36.7831 20.1294 35.9855C22.3369 35.188 24.245 33.7293 25.5937 31.8083C26.9424 29.8872 27.6662 27.5971 27.6666 25.2499V19.0233C29.4583 19.7851 31.3863 20.1742 33.3333 20.1666H34.9999V10.8333H33.3333C30.1616 10.8333 27.6666 8.27159 27.6666 4.99992V3.33325H18.3333ZM21.6666 6.66659H24.4799C25.1366 10.3666 27.9466 13.3266 31.6666 14.0166V16.7133C29.9366 16.4599 28.3749 15.8099 26.9283 14.8416L24.3333 13.1049V25.2499C24.3331 26.8664 23.8483 28.4457 22.9415 29.7838C22.0347 31.1219 20.7475 32.1575 19.2462 32.7567C17.7449 33.3558 16.0985 33.4912 14.5195 33.1451C12.9405 32.7991 11.5015 31.9876 10.3884 30.8154C9.27532 29.6433 8.53921 28.1643 8.27517 26.5696C8.01112 24.9748 8.23127 23.3375 8.90718 21.8692C9.58308 20.4008 10.6837 19.1688 12.0669 18.3323C13.4501 17.4958 15.0523 17.0933 16.6666 17.1766V19.8499C15.5807 19.7661 14.4948 20.0116 13.5506 20.5544C12.6063 21.0972 11.8476 21.9119 11.3735 22.8924C10.8994 23.8729 10.7318 24.9736 10.8927 26.0507C11.0536 27.1279 11.5354 28.1315 12.2754 28.9307C13.0153 29.7298 13.979 30.2873 15.0406 30.5305C16.1022 30.7736 17.2125 30.6911 18.2265 30.2937C19.2405 29.8963 20.1112 29.2024 20.7249 28.3026C21.3385 27.4029 21.6667 26.339 21.6666 25.2499V6.66659ZM14.1666 25.2499C14.1666 24.6974 14.3861 24.1675 14.7768 23.7768C15.1675 23.3861 15.6974 23.1666 16.2499 23.1666C16.8025 23.1666 17.3324 23.3861 17.7231 23.7768C18.1138 24.1675 18.3333 24.6974 18.3333 25.2499C18.3333 25.8025 18.1138 26.3324 17.7231 26.7231C17.3324 27.1138 16.8025 27.3333 16.2499 27.3333C15.6974 27.3333 15.1675 27.1138 14.7768 26.7231C14.3861 26.3324 14.1666 25.8025 14.1666 25.2499Z" fill="black"/>
</svg>
